<svg width="62" height="62" viewBox="0 0 62 62" fill="none" xmlns="http://www.w3.org/2000/svg">
<path d="M31 0C13.8811 0 0 13.8811 0 31C0 48.1189 13.8811 62 31 62C33.8589 62 36.1667 59.6922 36.1667 56.8333C36.1667 55.49 35.65 54.2844 34.8233 53.3544C34.0311 52.4589 33.5144 51.2533 33.5144 49.9444C33.5144 47.0856 35.8222 44.7778 38.6811 44.7778H44.7778C54.2844 44.7778 62 37.0622 62 27.5556C62 12.3311 48.1189 0 31 0ZM12.0556 31C9.19667 31 6.88889 28.6922 6.88889 25.8333C6.88889 22.9744 9.19667 20.6667 12.0556 20.6667C14.9144 20.6667 17.2222 22.9744 17.2222 25.8333C17.2222 28.6922 14.9144 31 12.0556 31ZM22.3889 17.2222C19.53 17.2222 17.2222 14.9144 17.2222 12.0556C17.2222 9.19667 19.53 6.88889 22.3889 6.88889C25.2478 6.88889 27.5556 9.19667 27.5556 12.0556C27.5556 14.9144 25.2478 17.2222 22.3889 17.2222ZM39.6111 17.2222C36.7522 17.2222 34.4444 14.9144 34.4444 12.0556C34.4444 9.19667 36.7522 6.88889 39.6111 6.88889C42.47 6.88889 44.7778 9.19667 44.7778 12.0556C44.7778 14.9144 42.47 17.2222 39.6111 17.2222ZM49.9444 31C47.0856 31 44.7778 28.6922 44.7778 25.8333C44.7778 22.9744 47.0856 20.6667 49.9444 20.6667C52.8033 20.6667 55.1111 22.9744 55.1111 25.8333C55.1111 28.6922 52.8033 31 49.9444 31Z" fill="#427B39"/>
</svg>
