<svg width="58" height="65" viewBox="0 0 58 65" fill="none" xmlns="http://www.w3.org/2000/svg">
<path d="M19.3333 29H12.8889V35.4444H19.3333V29ZM32.2222 29H25.7778V35.4444H32.2222V29ZM45.1111 29H38.6667V35.4444H45.1111V29ZM51.5556 6.44445H48.3333V0H41.8889V6.44445H16.1111V0H9.66667V6.44445H6.44444C2.86778 6.44445 0.0322222 9.34445 0.0322222 12.8889L0 58C0 61.5445 2.86778 64.4445 6.44444 64.4445H51.5556C55.1 64.4445 58 61.5445 58 58V12.8889C58 9.34445 55.1 6.44445 51.5556 6.44445ZM51.5556 58H6.44444V22.5556H51.5556V58Z" fill="#427B39"/>
<path d="M27.1787 42.0977H24.2891C24.4395 40.9303 24.8584 39.9922 25.5459 39.2832C26.5055 38.2949 27.7122 37.8008 29.166 37.8008C30.4622 37.8008 31.5472 38.2126 32.4209 39.0361C33.3018 39.8597 33.7422 40.8372 33.7422 41.9688C33.7422 42.6706 33.5488 43.3115 33.1621 43.8916C32.7826 44.4717 32.2275 44.9408 31.4971 45.2988C32.4567 45.5853 33.2051 46.0866 33.7422 46.8027C34.2865 47.5117 34.5586 48.3496 34.5586 49.3164C34.5586 50.7344 34.0358 51.9375 32.9902 52.9258C31.9447 53.9069 30.6126 54.3975 28.9941 54.3975C27.4616 54.3975 26.2119 53.9355 25.2451 53.0117C24.2783 52.0807 23.7484 50.8167 23.6553 49.2197H26.6309C26.7598 50.0361 27.0426 50.6449 27.4795 51.0459C27.9235 51.4398 28.4821 51.6367 29.1553 51.6367C29.8571 51.6367 30.4372 51.4111 30.8955 50.96C31.361 50.5088 31.5938 49.9574 31.5938 49.3057C31.5938 48.5895 31.2822 47.9844 30.6592 47.4902C30.0361 46.9961 29.1374 46.7419 27.9629 46.7275V44.1494C28.6862 44.0921 29.2233 43.9811 29.5742 43.8164C29.9323 43.6445 30.208 43.4118 30.4014 43.1182C30.6019 42.8245 30.7021 42.513 30.7021 42.1836C30.7021 41.7539 30.5518 41.3994 30.251 41.1201C29.9502 40.8337 29.5563 40.6904 29.0693 40.6904C28.6396 40.6904 28.2494 40.8229 27.8984 41.0879C27.5475 41.3457 27.3076 41.6823 27.1787 42.0977Z" fill="#427B39"/>
</svg>
