<svg width="64" height="62" viewBox="0 0 64 62" fill="none" xmlns="http://www.w3.org/2000/svg">
<path d="M36 33.0295V62H56C58.208 62 60 60.1459 60 57.8614V33.0295H36Z" fill="#427B39"/>
<path d="M4 33.0295V57.8614C4 60.1459 5.796 62 8 62H28V33.0295H4Z" fill="#427B39"/>
<path d="M60 16.4749H47.344C48.252 15.8334 49.032 15.1961 49.576 14.6249C52.804 11.2685 52.804 5.80548 49.576 2.44904C46.44 -0.820485 40.976 -0.812208 37.844 2.44904C36.108 4.24935 31.508 11.5789 32.144 16.4749H31.856C32.488 11.5789 27.888 4.24935 26.156 2.44904C23.02 -0.812208 17.556 -0.812208 14.424 2.44904C11.2 5.80548 11.2 11.2685 14.42 14.6249C14.968 15.1961 15.748 15.8334 16.656 16.4749H4C1.796 16.4749 0 18.3332 0 20.6135V26.8215C0 27.9638 0.896 28.8908 2 28.8908H28V20.6135H36V28.8908H62C63.104 28.8908 64 27.9638 64 26.8215V20.6135C64 18.3332 62.208 16.4749 60 16.4749ZM27.764 16.3383C27.764 16.3383 27.596 16.4749 27.024 16.4749C24.26 16.4749 18.984 13.5034 17.26 11.7072C15.584 9.96068 15.584 7.11329 17.26 5.36679C18.072 4.5225 19.148 4.05898 20.292 4.05898C21.432 4.05898 22.508 4.5225 23.32 5.36679C26.016 8.17279 28.696 15.3409 27.764 16.3383ZM36.972 16.4749C36.404 16.4749 36.236 16.3425 36.236 16.3383C35.304 15.3409 37.984 8.17279 40.68 5.36679C42.292 3.68236 45.112 3.67408 46.74 5.36679C48.42 7.11329 48.42 9.96068 46.74 11.7072C45.016 13.5034 39.74 16.4749 36.972 16.4749Z" fill="#427B39"/>
</svg>
